<svg width="41" height="40" viewBox="0 0 41 40" fill="none" xmlns="http://www.w3.org/2000/svg">
<path d="M13.7945 29.903H26.8984C28.5243 29.903 29.4824 28.9449 29.4824 27.3964V18.725L30.3824 19.4702C30.6728 19.7219 31.0212 19.8961 31.3696 19.8961C32.1148 19.8961 32.6374 19.4315 32.6374 18.7154C32.6374 18.3282 32.4632 17.9605 32.1341 17.6895L29.4824 15.4636V11.1569C29.4824 10.702 29.192 10.4117 28.7469 10.4117H26.9661C26.5113 10.4117 26.2112 10.702 26.2112 11.1569V12.7054L22.0691 9.231C21.0432 8.36967 19.7077 8.36967 18.6818 9.231L8.59743 17.6992C8.26839 17.9702 8.09418 18.3476 8.09418 18.7057C8.09418 19.3831 8.58776 19.8961 9.36199 19.8961C9.72007 19.8961 10.0685 19.7219 10.3588 19.4702L11.2105 18.7637V27.3964C11.2105 28.9449 12.1686 29.903 13.7945 29.903ZM23.1337 21.2897C23.1337 20.8251 22.8336 20.5251 22.3691 20.5251H18.3625C17.8979 20.5251 17.5882 20.8251 17.5882 21.2897V27.4061H14.6074C14.0267 27.4061 13.7074 27.0771 13.7074 26.4964V16.6636L19.8432 11.5247C20.1819 11.2247 20.5593 11.2247 20.9174 11.5247L26.9855 16.6249V26.4964C26.9855 27.0771 26.6661 27.4061 26.0951 27.4061H23.1337V21.2897Z" fill="white"/>
</svg>
